<?xml version="1.0" standalone="no"?>
<!DOCTYPE svg PUBLIC "-//W3C//DTD SVG 20010904//EN"
 "http://www.w3.org/TR/2001/REC-SVG-20010904/DTD/svg10.dtd">
<svg version="1.0" xmlns="http://www.w3.org/2000/svg"
 width="512.000000pt" height="512.000000pt" viewBox="0 0 512.000000 512.000000"
 preserveAspectRatio="xMidYMid meet">
<metadata>
Created by potrace 1.11, written by Peter Selinger 2001-2013
</metadata>
<g transform="translate(0.000000,512.000000) scale(0.100000,-0.100000)"
fill="#000000" stroke="none">
<path d="M3949 4738 c-41 -29 -204 -144 -364 -257 -159 -112 -317 -223 -350
-246 -33 -23 -301 -212 -595 -420 -294 -208 -566 -400 -605 -427 -38 -27 -110
-78 -160 -113 -49 -35 -108 -77 -130 -92 -109 -77 -472 -333 -561 -396 l-101
-71 9 -45 c4 -25 11 -70 14 -101 3 -30 7 -57 9 -60 2 -3 7 -33 10 -65 4 -33 9
-63 11 -66 1 -3 6 -32 9 -65 4 -32 8 -61 10 -64 2 -3 6 -33 10 -65 3 -33 8
-67 10 -75 3 -8 6 -28 9 -45 10 -64 18 -121 21 -135 2 -8 6 -37 9 -65 7 -48
21 -142 30 -195 3 -14 12 -75 21 -136 8 -60 17 -121 20 -135 4 -28 25 -162 30
-199 2 -14 11 -70 19 -125 8 -55 18 -118 21 -140 3 -22 10 -65 15 -95 14 -84
18 -110 25 -169 7 -53 9 -71 20 -121 3 -14 7 -47 11 -74 6 -53 23 -148 27
-151 2 -3 191 70 517 199 107 42 200 78 205 80 6 2 19 7 30 11 25 10 589 231
740 289 61 24 211 83 335 131 124 48 269 105 324 126 54 21 100 39 101 41 3 3
7 40 30 303 3 33 8 87 12 120 11 108 12 119 18 205 4 47 8 96 10 110 2 14 7
61 10 105 3 44 8 96 10 115 2 19 6 67 10 105 3 39 8 88 10 110 2 22 7 72 10
110 3 39 8 88 10 110 3 22 7 74 10 115 4 41 8 89 9 105 2 17 7 68 11 115 4 47
9 96 10 110 1 14 6 59 9 100 4 41 9 91 11 110 4 33 11 111 20 225 2 28 7 77
10 110 11 110 14 139 20 220 3 44 8 96 10 115 2 19 7 64 10 100 3 36 8 92 11
125 11 108 14 139 19 210 3 39 7 86 10 105 2 19 7 64 10 100 10 137 16 196 21
213 8 27 -6 21 -87 -35z"/>
</g>
</svg>
