<svg width="512" height="512" version="1.1" viewBox="0 0 135.47 135.47" xmlns="http://www.w3.org/2000/svg"><g transform="translate(0 -161.53)"><circle cx="67.733" cy="229.27" r="67.733" fill="#4d4a6b" style="paint-order:markers stroke fill"/><ellipse transform="rotate(-1.8141)" cx="60.43" cy="231.31" rx="66.675" ry="66.675" fill="#222034" style="paint-order:markers stroke fill"/><circle transform="rotate(-15)" cx="6.0868" cy="238.99" r="65.881" fill="#4d4a6b" style="paint-order:markers stroke fill"/><circle transform="rotate(-1.8141)" cx="60.441" cy="231.3" r="56.092" fill="#222034" style="paint-order:markers stroke fill"/><circle cx="67.733" cy="229.27" r="55.298" fill="#4d4a6b" style="paint-order:markers stroke fill"/><g fill="#222034"><ellipse transform="rotate(-1.8141)" cx="60.441" cy="231.3" rx="54.636" ry="54.636" style="paint-order:markers stroke fill"/><g transform="rotate(-15 65.724 229.53)" stroke-width=".32476" aria-label="RACTF"><path d="m74.414 173.43-2.9462-0.13928-1.1045-3.3669-0.83633-0.0395-0.15636 3.3073-2.6547-0.1255 0.40887-8.6485 4.5175 0.21357q1.4953 0.0707 2.2857 0.81291 0.79705 0.73619 0.74283 1.883-0.03535 0.74763-0.36672 1.3098-0.33108 0.55585-1.2768 0.94929zm-4.7995-5.3958 1.1341 0.0536q0.50053 0.0237 0.81454-0.17104 0.31401-0.1947 0.33318-0.6002 0.03924-0.83-0.98084-0.87822l-1.2228-0.0578z"/><path d="m80.342 174.58-0.1397-1.7693-2.2752-0.46121-0.84872 1.5689-2.1136-0.42844 4.3434-7.9538 2.7539 0.55823 0.93439 9.0236zm-1.5981-3.9935 1.3801 0.27975-0.19103-2.6016z"/><path d="m89.132 173.83 2.2363 0.96013q-0.70041 1.44-1.9372 1.8981-1.2308 0.46025-2.6094-0.0361-1.6591-0.59728-2.2843-2.0628t0.07091-3.3991q0.68967-1.9157 2.0797-2.7434 1.3901-0.82764 3.1208-0.20458 1.6173 0.58225 2.1604 1.789 0.54905 1.2089 0.12962 2.7298l-2.3786-0.71474q0.29434-0.81761 0.1091-1.2955-0.17928-0.47577-0.603-0.62831-1.1817-0.4254-2.0368 1.9499-0.47912 1.3309-0.34663 1.9179 0.13846 0.58916 0.69348 0.78897 0.99069 0.35665 1.5956-0.94914z"/><path d="m97.328 173.99-2.9955 5.8631-2.2424-1.1457 2.9955-5.8631-1.5985-0.8167 0.94368-1.847 5.4394 2.7791-0.94368 1.847z"/><path d="m102.88 181.39-2.3453-1.5706-1.8036 2.6931-2.1503-1.44 4.8177-7.1939 5.2018 3.4836-1.1471 1.7128-3.0515-2.0436-0.78355 1.17 2.3453 1.5706z"/></g><g transform="rotate(-15 65.724 229.53)" stroke-width=".32476" aria-label="2020"><path d="m42.063 287.67-1.0409 1.8549-5.8914-2.9678 0.89604-1.7787 1.7794-0.26132q0.38878-0.0527 1.5044-0.30753 1.1241-0.25761 1.5389-0.48898 0.42051-0.22851 0.61456-0.61371 0.18548-0.36821 0.08718-0.69472-0.09545-0.33218-0.43534-0.5034-0.84972-0.42804-1.6251 0.85749l-1.7632-1.364q0.90298-1.2568 2.0866-1.4915 1.1921-0.23754 2.3534 0.34745 1.2576 0.6335 1.7111 1.7071 0.45915 1.0765-0.10586 2.1981-0.37668 0.74775-1.1524 1.2021-0.7701 0.45723-3.5709 0.78641z"/><path d="m45.1 291.24q-1.4709-0.53935-1.9049-2.0091-0.43175-1.4757 0.26044-3.3635 0.70967-1.9354 1.9956-2.734 1.2919-0.79641 2.7628-0.25706 1.5424 0.56555 1.9253 2.0639 0.3851 1.4924-0.29618 3.3504-0.69438 1.8938-1.9922 2.688-1.2919 0.79641-2.7509 0.26143zm0.65706-1.7183q0.51215 0.18779 0.92286-0.398 0.4129-0.59176 0.82778-1.7232 0.56992-1.5543 0.51235-2.1159-0.05161-0.55939-0.44466-0.70351-0.47642-0.17469-0.89249 0.38888-0.40794 0.55979-0.8119 1.6615-0.54808 1.4948-0.57032 2.1082-0.01409 0.60962 0.45637 0.78212z"/><path d="m56.124 292.02-0.58772 2.0442-6.415-1.5373 0.46415-1.9368 1.672-0.66249q0.36632-0.14051 1.3937-0.64439 1.035-0.50858 1.3857-0.82893 0.35688-0.31887 0.4574-0.73832 0.09608-0.40094-0.07449-0.69619-0.1691-0.30143-0.5392-0.39012-0.92524-0.22173-1.3851 1.2074l-2.029-0.92325q0.59064-1.4304 1.6888-1.9304 1.1058-0.50465 2.3703-0.20162 1.3694 0.32816 2.057 1.2691 0.69383 0.94245 0.40114 2.1638-0.19512 0.81422-0.84598 1.4344-0.6447 0.62168-3.2953 1.5845z"/><path d="m59.899 294.79q-1.5557-0.18575-2.3167-1.5159-0.7603-1.3364-0.5219-3.333 0.24441-2.0469 1.3116-3.1204 1.0735-1.0728 2.6292-0.88702 1.6312 0.19478 2.3492 1.5645 0.71875 1.3634 0.48412 3.3285-0.23914 2.0028-1.319 3.0748-1.0735 1.0728-2.6166 0.88851zm0.24328-1.8235q0.54165 0.0647 0.80626-0.60002 0.26537-0.67099 0.40826-1.8676 0.19628-1.6438 0.01081-2.177-0.17917-0.53243-0.59485-0.58207-0.50386-0.0602-0.77882 0.58414-0.26791 0.63875-0.40703 1.8039-0.18876 1.5808-0.069 2.1828 0.12681 0.59645 0.62437 0.65586z"/></g></g><path transform="matrix(.26458 0 0 .26458 0 161.53)" d="m256 92.377-4.8711 10.562-44.779 96.947-13.258 28.701-6.541-14.152-38.008-82.301-38.01 82.301-34.533 74.758 72.543 90.67 37.824-47.279 69.633 87.039 69.635-87.039 37.832 47.279 72.533-90.67-34.525-74.758-38.008-82.301-38.01 82.301-6.541 14.152-13.258-28.701-49.658-107.51zm0.00391 11.764 44.775 96.945 44.775 96.939-89.551 111.94-89.551-111.94 44.775-96.939 44.775-96.945zm0 37.17-67.164 145.52 67.164-111.94 22.389 22.389-22.389-55.971zm-107.46 2.5879 33.133 71.738 8.7422 18.93-29.629 64.148 13.705 17.129-25.951 19.465-16.568-8.2832 16.568 24.85 27.387-34.234 7.334 9.166-34.721 43.402-66.268-82.836 33.133-71.736 33.135-71.738zm214.92 0 33.135 71.738 33.133 71.736-66.268 82.836-34.725-43.406 22.473-28.088-1.2559-2.7226-22.547-48.818 36.055-60.092 16.568 16.566-16.568-41.416-37.631 81.531-4.2461-9.1953 8.7441-18.932 33.133-71.738zm-214.92 25.74-49.701 107.69 49.701-82.836 16.566 16.568-16.566-41.418zm248.06 133.41-33.135 24.852-16.566-8.2852 16.566 24.852 33.135-41.418zm-95.82 28.557-44.775 33.582-22.387-11.193 22.387 33.582 44.775-55.971z" color="#000000" color-rendering="auto" dominant-baseline="auto" fill="#4d4a6b" image-rendering="auto" shape-rendering="auto" solid-color="#000000" style="font-feature-settings:normal;font-variant-alternates:normal;font-variant-caps:normal;font-variant-ligatures:normal;font-variant-numeric:normal;font-variant-position:normal;isolation:auto;mix-blend-mode:normal;shape-padding:0;text-decoration-color:#000000;text-decoration-line:none;text-decoration-style:solid;text-indent:0;text-orientation:mixed;text-transform:none;white-space:normal"/></g></svg>
