<?xml version="1.0" encoding="utf-8"?>
<!-- Generator: Adobe Illustrator 24.1.3, SVG Export Plug-In . SVG Version: 6.00 Build 0)  -->
<svg version="1.1" id="Layer_1" xmlns="http://www.w3.org/2000/svg" xmlns:xlink="http://www.w3.org/1999/xlink" x="0px" y="0px"
	 viewBox="0 0 509.24 84.65" style="enable-background:new 0 0 509.24 84.65;" xml:space="preserve">
<style type="text/css">
	.st0{fill:#ECECEC;}
	.st1{fill:#A7A9AC;}
	.st2{fill:#CC3433;}
	.st3{fill:#9B3333;}
	.st4{fill:#FFFFFF;}
	.st5{fill:url(#SVGID_1_);}
	.st6{fill:#BCBEC0;}
</style>
<g>
	<g>
		<g>
			<polygon class="st0" points="1.41,69.34 1.41,15.33 19.42,15.33 19.42,53.81 44.77,53.81 44.77,69.34 			"/>
			<path class="st1" d="M19,15.74V53.4v0.83h0.83h24.52v14.7H1.83V15.74H19 M19.83,14.92H1v54.83h44.18V53.4H19.83V14.92
				L19.83,14.92z"/>
		</g>
		<g>
			<polygon class="st0" points="94.27,69.34 94.27,42.73 81.88,61.81 81.59,61.81 69.2,42.73 69.2,69.34 51.47,69.34 51.47,15.33 
				70.39,15.33 81.92,34.27 93.36,15.33 112.28,15.33 112.28,69.34 			"/>
			<path class="st1" d="M111.86,15.74v53.18H94.69v-24.8v-2.79l-1.52,2.34L81.74,61.27L70.31,43.67l-1.52-2.34v2.79v24.8h-16.9
				V15.74h18.27L81.21,33.9l0.71,1.16l0.7-1.17l10.96-18.15H111.86 M112.69,14.92H93.13L81.92,33.47l-11.3-18.55H51.06v54.83h18.55
				V44.12l11.76,18.09h0.73l11.76-18.09v25.63h18.83V14.92L112.69,14.92z"/>
		</g>
		<g>
			<path class="st0" d="M162.5,69.39l-2.67-7.21h-18.85l-2.76,7.16h-19.3l22.71-54.28h17.91l22.54,54.33H162.5z M145.43,49.22h9.73
				l-4.81-12.98L145.43,49.22z"/>
			<path class="st1" d="M159.26,15.47l22.2,53.51h-18.67l-2.47-6.67l-0.2-0.54h-0.58h-18.28h-0.57l-0.2,0.53l-2.55,6.63h-18.4
				l22.36-53.46H159.26 M144.83,49.64h1.2h8.54h1.19l-0.41-1.11l-4.23-11.39l-0.77-2.07l-0.78,2.06l-4.32,11.39L144.83,49.64
				 M159.81,14.64h-18.46l-23.05,55.11h20.21l2.76-7.16h18.28l2.67,7.21h20.48L159.81,14.64L159.81,14.64z M146.03,48.81l4.32-11.39
				l4.23,11.39H146.03L146.03,48.81z"/>
		</g>
		<g>
			<polygon class="st0" points="217.71,25.29 224.33,15.33 244.91,15.33 227.96,40.45 			"/>
			<path class="st1" d="M244.13,15.74l-16.17,23.97l-9.75-14.42l6.34-9.55H244.13 M245.69,14.92H224.1l-6.89,10.38l10.75,15.89
				L245.69,14.92L245.69,14.92z"/>
		</g>
		<g>
			<polygon class="st0" points="225.06,69.34 217.71,58.36 227.87,43.3 245.37,69.34 			"/>
			<path class="st1" d="M227.87,44.04l16.73,24.88h-19.32l-7.07-10.56L227.87,44.04 M227.87,42.56l-10.65,15.8l7.62,11.39h21.31
				L227.87,42.56L227.87,42.56z"/>
		</g>
		<g>
			<polygon class="st2" points="185.21,69.34 203.94,41.74 186.12,15.33 206.8,15.33 224.52,41.73 205.79,69.34 			"/>
			<path class="st3" d="M206.58,15.74l17.45,25.99l-18.45,27.19h-19.59l18.14-26.72l0.31-0.46l-0.31-0.46L186.9,15.74H206.58
				 M207.02,14.92h-21.68l18.09,26.82l-19.01,28.01h21.58l19.01-28.01L207.02,14.92L207.02,14.92z"/>
		</g>
		<path class="st4" d="M1.83,46.98c5.42-2.2,11.75-4.15,17.17-5.07l0-26.17H1.83L1.83,46.98z"/>
		<path class="st4" d="M81.91,35.05L70.15,15.74H51.89l0.01,23.07c22.14-2.76,44.44-1.84,59.96,0.18l0.01-23.26l-18.27,0.01
			L81.91,35.05z"/>
		<path class="st4" d="M141.9,15.47l-10.93,26.18c4.68,0.83,9.82,1.01,16.25,1.66l3.14-8.29l3.12,8.45
			c5.79,0.18,10.77-0.45,16.83-1.37l-11.05-26.62L141.9,15.47z"/>
		<path class="st4" d="M218.22,25.29l5.24,7.75c5.42-1.65,8.83-3.32,12.96-5.89l7.7-11.41h-19.58L218.22,25.29z"/>
		<g>
			<path class="st1" d="M248.77,19.99v-4.47h-1.67v-0.6h4.02v0.6h-1.68v4.47H248.77z"/>
			<path class="st1" d="M251.79,19.99v-5.07h1.01l1.2,3.59c0.11,0.33,0.19,0.58,0.24,0.75c0.06-0.18,0.15-0.46,0.27-0.81l1.21-3.53
				h0.9v5.07h-0.65v-4.24l-1.47,4.24h-0.61l-1.47-4.32v4.32H251.79z"/>
		</g>
		<g>
			
				<linearGradient id="SVGID_1_" gradientUnits="userSpaceOnUse" x1="203.0056" y1="550.31" x2="203.0056" y2="527.7985" gradientTransform="matrix(1 0 0 1 0 -512)">
				<stop  offset="0" style="stop-color:#FFFFFF"/>
				<stop  offset="0.9448" style="stop-color:#DC4627"/>
			</linearGradient>
			<path class="st5" d="M186.89,15.75h19.69l12.55,18.72c0,0-4.81,2.35-17.03,3.73L186.89,15.75z"/>
		</g>
	</g>
	<g id="Layer_1_8_">
		<path class="st6" d="M274.35,0.72h3.77v83.35h-3.77V0.72z"/>
	</g>
	<g>
		<path class="st4" d="M303.39,42.54v-0.16c0-14.76,10.7-28.26,27.02-28.26c8.9,0,14.52,2.65,19.99,7.18l-2.66,3.05
			c-4.29-3.75-9.29-6.56-17.57-6.56c-13.27,0-22.57,11.24-22.57,24.44v0.16c0,14.13,8.82,24.67,23.42,24.67
			c6.95,0,13.43-2.89,17.41-6.25V45.11h-18.27v-3.75h22.17v21.08c-4.92,4.37-12.57,8.2-21.47,8.2
			C313.62,70.65,303.39,57.92,303.39,42.54z"/>
		<path class="st4" d="M359.91,29.89h3.83v11.32c3.12-7.11,9.76-12.26,17.65-11.95v4.22h-0.39c-9.21,0-17.26,6.95-17.26,19.91v16.32
			h-3.83V29.89z"/>
		<path class="st4" d="M380.21,49.96V49.8c0-11.17,8.67-20.85,20.53-20.85c11.79,0,20.38,9.53,20.38,20.69v0.16
			c0,11.17-8.67,20.85-20.53,20.85C388.8,70.65,380.21,61.12,380.21,49.96z M416.99,49.96V49.8c0-9.6-7.18-17.26-16.4-17.26
			c-9.45,0-16.24,7.73-16.24,17.1v0.16c0,9.6,7.18,17.26,16.4,17.26C410.19,67.06,416.99,59.33,416.99,49.96z"/>
		<path class="st4" d="M425.88,54.25V29.89h3.83v23.66c0,8.2,4.61,13.59,12.65,13.59c7.81,0,13.82-5.93,13.82-14.21V29.89H460v39.82
			h-3.83v-7.42c-2.66,4.68-7.1,8.35-14.37,8.35C431.74,70.65,425.88,63.78,425.88,54.25z"/>
		<path class="st4" d="M468.28,29.89h3.83v8.9c3.44-5.23,8.51-9.84,16.4-9.84c9.6,0,19.36,7.73,19.36,20.69v0.16
			c0,12.96-9.76,20.85-19.36,20.85c-7.96,0-13.12-4.53-16.4-9.53V82.2h-3.83V29.89z M503.73,49.96V49.8
			c0-10.46-7.26-17.18-15.62-17.18c-8.28,0-16.24,6.95-16.24,17.1v0.16c0,10.23,7.96,17.1,16.24,17.1
			C496.78,66.98,503.73,60.65,503.73,49.96z"/>
	</g>
</g>
</svg>
