<svg viewBox="0 0 2783.58 768">
    <path d="M736,128,230,485.06,292.58,896,679.76,744.73Zm2277.6,54.86-420,38.4L2937.05,227l-21.56,80.47ZM676.27,231.44,632.7,709.35l-300,117.22-48.5-318.44Zm1380.11,21.64c-141.7,0-260.81,112.95-260.81,260.81,0,143.75,116.37,264.92,260.13,264.92,78.72,0,173.87-35.6,230-134.86h-91C2159.75,685,2109.78,711,2056.38,711c-99.26,0-186.88-87.62-186.88-196.47,0-106.78,82.83-193.72,188.25-193.72,82.15,0,127.32,54.08,142.38,71.19h89c-13-22.59-32.18-56.81-78-89.67C2156.32,262.66,2094.72,253.08,2056.38,253.08Zm-1090,9.58V769.22h73.93V534.43h1.37l167,234.79h92.41l-141.7-188.93c32.86,0,145.12-21.22,145.12-155.39,0-42.44-14.37-89-46.55-119.79-26.69-25.33-63.66-42.45-134.85-42.45Zm563.21,0L1337.25,769.22h78l82.14-217,65-193.72h1.37l64.35,193.72,81.46,217h78.72L1596,262.66Zm98.57,289.56H1497.43l65,67.77Zm681-289.56v67.77h97.2V769.22h73.94V330.43h97.2V262.66Zm317.8,0V769.22h73.93V550.17H2883V482.4H2700.88v-152H2883V262.66ZM635.49,302.11,356.9,498.82,599.77,364l17.43,65.08Zm404.84,28.32h78c83.51,0,112.26,52,112.26,94.47,0,97.89-109.53,99.26-139.65,99.26h-50.65ZM368,670.22l5.52,85.71,142.07-55.5L397.3,714.67ZM921.38,737,900.55,841.14,1088,820.31,942.21,799.49Z" transform="translate(-230 -128)" style="fill: '#fff'" />
</svg>